:version 1.10
:name ASF
:units
  mass 1
  length 1
  angle deg
:documentation
  ASF file generated by Kaydara
:root
  axis xyz
  order  tx ty tz rx ry rz
  position 0 0 0
  orientation 0 0 0
:bonedata
  begin
    id 1
    name LeftUpLegDummy
    direction 1 -2.30186e-007 -8.31532e-007
    length 2.93387
    axis 0 0 0 xyz
  end
  begin
    id 2
    name LeftUpLeg
    direction -1.82929e-007 -1 -1.48925e-009
    length 17.3336
    axis -3.48766 0.00143442 -0.000521554 xyz
    dof rx ry rz
  end
  begin
    id 3
    name LeftLeg
    direction -1.82929e-007 -1 -5.23717e-011
    length 14.9995
    axis 3.68178 -0.00654042 -0.000282425 xyz
    dof rx ry rz
  end
  begin
    id 4
    name LeftFoot
    direction 8.31532e-007 -4.54534e-011 1
    length 6.74421
    axis 1.87234e-006 4.66016e-005 -5.96866e-006 xyz
    dof rx ry rz
  end
  begin
    id 5
    name LeftToes
    direction 0.00818058 -0.00485161 0.999955
    length 3.85048
    axis 1.06247e-005 4.65869e-005 -5.96999e-006 xyz
    dof rx ry rz
  end
  begin
    id 6
    name SpineDummy
    direction -5.8607e-008 0.943407 -0.331637
    length 5.93572
    axis 0 0 0 xyz
  end
  begin
    id 7
    name Spine
    direction -1.04988e-007 0.999988 0.00495137
    length 10.1015
    axis -0.001389 0.000121417 6.61666e-006 xyz
    dof rx ry rz
  end
  begin
    id 8
    name Spine1
    direction 0 0 0
    length 0
    axis -0.001389 0.00012144 6.56766e-006 xyz
    dof rx ry rz
  end
  begin
    id 9
    name RightShoulderDummy
    direction -0.98348 0.17941 -0.0240696
    length 3.59882
    axis -0.001389 0.00012144 6.56766e-006 xyz
  end
  begin
    id 10
    name RightShoulder
    direction -0.978693 0.204882 0.0135597
    length 2.70001
    axis 0.215806 0.000203631 -0.00679732 xyz
    dof rx ry rz
  end
  begin
    id 11
    name RightArm
    direction -1 3.85509e-006 8.31394e-007
    length 10.2459
    axis -23.2009 -0.134239 -0.964098 xyz
    dof rx ry rz
  end
  begin
    id 12
    name RightForeArm
    direction -1 3.85569e-006 8.3129e-007
    length 8.16799
    axis -9.92322 0.0658061 0.17887 xyz
    dof rx ry rz
  end
  begin
    id 13
    name RightHand
    direction -0.992843 -0.0414604 0.112003
    length 5.28593
    axis -0.00960638 0.00330669 -0.185225 xyz
    dof rx ry rz
  end
  begin
    id 14
    name LeftShoulder1Dummy
    direction 0.983523 0.179172 -0.0240748
    length 3.59866
    axis -0.001389 0.00012144 6.56766e-006 xyz
  end
  begin
    id 15
    name LeftShoulder1
    direction 0.978627 0.205195 0.0135605
    length 2.70019
    axis -0.001389 0.00012144 6.57583e-006 xyz
    dof rx ry rz
  end
  begin
    id 16
    name LeftArm
    direction 1 3.51895e-006 -8.60188e-007
    length 10.2459
    axis -23.1894 0.134785 0.967513 xyz
    dof rx ry rz
  end
  begin
    id 17
    name LeftForeArm
    direction 1 3.51921e-006 -7.32029e-007
    length 8.16799
    axis -9.91835 -0.0656957 -0.177789 xyz
    dof rx ry rz
  end
  begin
    id 18
    name LeftHand
    direction 0.992938 -0.0411636 0.11126
    length 5.32135
    axis -0.00960237 -0.00340661 0.185177 xyz
    dof rx ry rz
  end
  begin
    id 19
    name HEadDummy
    direction 1.01974e-006 0.999861 -0.016675
    length 2.99946
    axis -0.001389 0.00012144 6.56766e-006 xyz
  end
  begin
    id 20
    name HEad
    direction -0.0222689 0.980941 0.193023
    length 5.12695
    axis -0.001389 0.00012144 6.56766e-006 xyz
    dof rx ry rz
  end
  begin
    id 21
    name RightUpLegDummy
    direction -1 2.30186e-007 8.31532e-007
    length 2.93387
    axis 0 0 0 xyz
  end
  begin
    id 22
    name RightUpLeg
    direction -1.82966e-007 -1 1.56832e-007
    length 17.3336
    axis -3.4909 -0.000906625 0.00028951 xyz
    dof rx ry rz
  end
  begin
    id 23
    name RightLeg
    direction -1.82786e-007 -1 -1.80317e-007
    length 14.9995
    axis 3.68513 0.0193739 -0.131021 xyz
    dof rx ry rz
  end
  begin
    id 24
    name RightFoot
    direction 8.31721e-007 -4.63324e-011 1
    length 6.74421
    axis 4.81691e-005 -0.120479 -0.188785 xyz
    dof rx ry rz
  end
  begin
    id 25
    name RightToes
    direction 0.00124746 -0.014064 0.9999
    length 3.85082
    axis 0.000481921 0.542163 -0.142575 xyz
    dof rx ry rz
  end
:hierarchy
  begin
    root LeftUpLegDummy SpineDummy RightUpLegDummy
    LeftUpLegDummy LeftUpLeg
    LeftUpLeg LeftLeg
    LeftLeg LeftFoot
    LeftFoot LeftToes
    SpineDummy Spine
    Spine Spine1
    Spine1 RightShoulderDummy LeftShoulder1Dummy HEadDummy
    RightShoulderDummy RightShoulder
    RightShoulder RightArm
    RightArm RightForeArm
    RightForeArm RightHand
    LeftShoulder1Dummy LeftShoulder1
    LeftShoulder1 LeftArm
    LeftArm LeftForeArm
    LeftForeArm LeftHand
    HEadDummy HEad
    RightUpLegDummy RightUpLeg
    RightUpLeg RightLeg
    RightLeg RightFoot
    RightFoot RightToes
  end

:SAMPLES-PER-SECOND 30
:FULLY-SPECIFIED
:DEGREES
431
root  6.47776 34.2595 -14.2625 -172.563 28.0484 179.491
LeftUpLeg  -14.166 1.66106 4.08925
LeftLeg  11.0436 -8.17643 -1.05396
LeftFoot  5.34894 0.0336726 -0.725608
LeftToes  -20.0442 7.65994e-007 1.12379e-007
Spine  4.93311 3.23997 0.0798553
Spine1  9.68497 6.87143 -0.123122
RightShoulder  0.0486312 -1.38417 -8.10344
RightArm  -4.09879 11.0454 79.0375
RightForeArm  157.155 46.1383 169.06
RightHand  1.62531 -8.88559 -20.3075
LeftShoulder1  -0.00808276 1.91223 -6.11879
LeftArm  -15.1621 19.4585 -71.9045
LeftForeArm  27.3554 -36.2438 -7.42412
LeftHand  0.0226197 1.21557 1.61615
HEad  27.6103 32.2965 -1.15258
RightUpLeg  -9.45038 -6.38277 -1.1304
RightLeg  12.2865 1.93451 0.293756
RightFoot  -1.28475 -0.00459236 0.00395471
RightToes  -25.6508 -0.11431 -0.220631
432
root  6.31356 34.2653 -14.4474 -172.477 28.935 179.501
LeftUpLeg  -13.7757 2.06599 3.6846
LeftLeg  10.6769 -7.73765 -0.94765
LeftFoot  5.06379 0.0286033 -0.6515
LeftToes  -19.4951 7.65994e-007 1.12379e-007
Spine  4.8887 3.13585 -0.103683
Spine1  9.58816 6.6447 -0.458863
RightShoulder  0.0469588 -1.28826 -8.07666
RightArm  -4.26845 7.57319 77.6045
RightForeArm  156.135 44.9781 169.489
RightHand  1.48754 -8.70021 -18.9855
LeftShoulder1  -0.00786937 2.03228 -6.03537
LeftArm  -15.3576 19.3298 -71.669
LeftForeArm  27.5197 -36.3621 -7.45658
LeftHand  0.0233235 1.0744 1.72954
HEad  27.5001 32.1387 -1.13974
RightUpLeg  -9.44809 -5.90906 -1.57717
RightLeg  12.1822 2.26965 0.340236
RightFoot  -1.11108 -0.00435523 0.00327348
RightToes  -26.0444 -0.117652 -0.223556
433
root  6.14106 34.2705 -14.614 -172.442 29.6617 179.491
LeftUpLeg  -13.5894 2.60942 3.23885
LeftLeg  10.6823 -7.55799 -0.926528
LeftFoot  4.67849 0.0246134 -0.591662
LeftToes  -18.792 7.65994e-007 1.12379e-007
Spine  4.89549 3.00712 -0.267863
Spine1  9.60821 6.34806 -0.727736
RightShoulder  0.0417325 -1.07531 -7.62411
RightArm  -1.80867 2.85199 75.4081
RightForeArm  155.973 45.1891 169.413
RightHand  1.29072 -8.5323 -16.7911
LeftShoulder1  -0.00753857 2.00133 -6.06686
LeftArm  -15.6216 19.2473 -71.4389
LeftForeArm  27.5604 -36.5657 -7.51274
LeftHand  0.0240156 1.01861 1.93981
HEad  26.9876 31.7473 -1.29158
RightUpLeg  -9.49047 -5.38771 -2.03012
RightLeg  12.2028 2.42447 0.36425
RightFoot  -0.885455 -0.00419774 0.000948473
RightToes  -26.8009 -0.122523 -0.229128
434
root  5.9576 34.2713 -14.7542 -172.43 30.3267 179.422
LeftUpLeg  -13.5318 2.87584 2.767
LeftLeg  10.8073 -7.15993 -0.893892
LeftFoot  4.31242 0.0201046 -0.520342
LeftToes  -18.0926 7.65994e-007 1.12379e-007
Spine  4.96893 2.81713 -0.446229
Spine1  9.77291 5.91489 -1.00406
RightShoulder  0.0351812 -0.554889 -6.98228
RightArm  2.66244 -2.57099 72.953
RightForeArm  156.433 47.7467 168.437
RightHand  0.902054 -7.9239 -12.5886
LeftShoulder1  -0.00708358 1.79383 -6.14885
LeftArm  -15.7039 19.243 -71.11
LeftForeArm  27.0892 -36.863 -7.5955
LeftHand  0.0247445 0.985243 2.21056
HEad  25.6048 31.3327 -1.64165
RightUpLeg  -9.62357 -4.70935 -2.52106
RightLeg  12.2941 2.34592 0.356292
RightFoot  -0.669952 -0.00396031 -0.00189589
RightToes  -27.754 -0.128764 -0.236057
435
root  5.75499 34.2646 -14.8417 -172.465 31.1059 179.439
LeftUpLeg  -13.62 3.13368 2.39684
LeftLeg  11.2436 -6.66814 -0.884427
LeftFoot  3.87708 0.0152502 -0.439328
LeftToes  -17.4207 7.65994e-007 1.12379e-007
Spine  5.21187 2.59815 -0.581442
Spine1  10.2898 5.41768 -1.18402
RightShoulder  0.0285548 0.337918 -7.00474
RightArm  7.53288 -7.91339 71.7043
RightForeArm  155.846 53.1669 165.993
RightHand  0.508398 -7.87194 -7.00311
LeftShoulder1  -0.00649762 1.55714 -6.33055
LeftArm  -15.4039 19.0523 -70.6825
LeftForeArm  26.2818 -37.3173 -7.72321
LeftHand  0.0248011 0.956151 2.43449
HEad  22.9221 30.7497 -2.43207
RightUpLeg  -9.88913 -3.96629 -2.93686
RightLeg  12.594 2.35155 0.369698
RightFoot  -0.537629 -0.00348336 -0.00413516
RightToes  -28.3432 -0.13268 -0.240287
436
root  5.51784 34.2568 -14.8625 -172.714 32.1173 179.394
LeftUpLeg  -13.7301 3.49222 1.98422
LeftLeg  11.8726 -6.06102 -0.872085
LeftFoot  3.482 0.0110328 -0.362981
LeftToes  -16.7 7.65994e-007 1.12379e-007
Spine  5.70809 2.39645 -0.827744
Spine1  11.3163 4.96831 -1.572
RightShoulder  0.0206904 1.36312 -7.66424
RightArm  11.7599 -11.918 72.4089
RightForeArm  151.84 61.5871 160.538
RightHand  0.16761 -7.79238 -2.08887
LeftShoulder1  -0.00577395 0.900862 -6.20463
LeftArm  -15.1142 18.8129 -70.1522
LeftForeArm  25.3939 -38.3076 -8.00696
LeftHand  0.0234832 0.918458 2.53998
HEad  17.9892 29.6031 -3.60226
RightUpLeg  -10.2916 -3.27199 -3.4041
RightLeg  13.2144 2.62006 0.440764
RightFoot  -0.376392 -0.00260732 -0.0046449
RightToes  -29.2021 -0.138465 -0.246382
437
root  5.22731 34.2534 -14.8219 -173.007 33.3291 179.209
LeftUpLeg  -13.9326 3.76017 1.43433
LeftLeg  12.3404 -5.12354 -0.780567
LeftFoot  3.33322 0.00862627 -0.296485
LeftToes  -15.9988 7.65994e-007 1.12379e-007
Spine  6.38013 2.24247 -1.18602
Spine1  12.6799 4.65932 -2.20736
RightShoulder  0.0144944 2.85182 -7.83109
RightArm  15.1337 -14.4802 73.1234
RightForeArm  145.801 69.3514 151.555
RightHand  0.0488355 -7.04881 -0.422499
LeftShoulder1  -0.00490577 0.125951 -5.76856
LeftArm  -14.5872 18.3929 -69.6716
LeftForeArm  24.6496 -39.5502 -8.37442
LeftHand  0.0229826 0.761035 3.0615
HEad  10.9862 27.5202 -5.03992
RightUpLeg  -10.9927 -2.70134 -4.01989
RightLeg  13.9899 3.26726 0.594721
RightFoot  -0.167016 -0.00118379 -0.00212708
RightToes  -29.9971 -0.143901 -0.251946
438
root  4.8948 34.252 -14.7226 -173.115 34.5993 179.036
LeftUpLeg  -14.4989 4.28104 0.866009
LeftLeg  12.8935 -4.35663 -0.70731
LeftFoot  3.29817 0.00689129 -0.250968
LeftToes  -15.6498 7.65994e-007 1.12379e-007
Spine  7.14642 2.17582 -1.49057
Spine1  14.22 4.55311 -2.7573
RightShoulder  0.0105032 4.23193 -7.43913
RightArm  17.6144 -16.2063 72.9061
RightForeArm  139.312 73.3984 143.069
RightHand  -0.0484136 -6.32263 1.24525
LeftShoulder1  -0.00388633 -0.581739 -5.41653
LeftArm  -13.9653 17.6218 -69.3046
LeftForeArm  24.0455 -40.5396 -8.67683
LeftHand  -0.00800258 -0.200841 4.34389
HEad  2.78054 24.7361 -6.28992
RightUpLeg  -12.1544 -2.31131 -4.5971
RightLeg  15.0252 4.11651 0.825693
RightFoot  0.120528 0.000383036 0.013296
RightToes  -30.5243 -0.147548 -0.255593
439
root  4.50972 34.2536 -14.5549 -173.023 35.7664 179.143
LeftUpLeg  -15.5784 5.03198 0.511694
LeftLeg  14.0548 -3.90442 -0.715735
LeftFoot  3.2292 0.00571753 -0.221464
LeftToes  -15.6553 7.65994e-007 1.12379e-007
Spine  7.96632 2.03035 -1.62919
Spine1  15.8669 4.28817 -3.00203
RightShoulder  0.00802869 4.93748 -7.4584
RightArm  19.594 -16.8695 72.6664
RightForeArm  133.965 74.8679 138.556
RightHand  -0.188133 -5.67151 4.1619
LeftShoulder1  -0.00270884 -1.41852 -4.96885
LeftArm  -14.1608 17.0839 -69.3297
LeftForeArm  23.1237 -41.908 -9.11066
LeftHand  -0.0343023 -0.678584 5.47367
HEad  -4.26129 22.7223 -7.50587
RightUpLeg  -13.5211 -1.8538 -4.91744
RightLeg  16.0372 4.7733 1.04471
RightFoot  0.801497 0.00215047 0.0700359
RightToes  -31.3486 -0.153317 -0.261229
440
root  4.09399 34.2497 -14.3685 -172.138 36.8251 179.905
LeftUpLeg  -16.9735 6.49657 0.536716
LeftLeg  14.8149 -4.19318 -0.826118
LeftFoot  3.12705 0.00704265 -0.23247
LeftToes  -15.4226 7.65994e-007 1.12379e-007
Spine  8.75719 1.776 -1.65417
Spine1  17.4648 3.79403 -3.04292
RightShoulder  0.00591302 5.50131 -7.51831
RightArm  20.5232 -16.6897 72.4475
RightForeArm  128.819 75.4105 136.586
RightHand  -0.344449 -5.23671 7.88146
LeftShoulder1  -0.00136655 -1.97544 -4.19396
LeftArm  -14.1972 16.3515 -69.5586
LeftForeArm  21.8628 -43.722 -9.71624
LeftHand  -0.0146835 -0.258542 6.30055
HEad  -9.03019 20.9664 -7.99285
RightUpLeg  -15.1223 -2.09772 -4.6776
RightLeg  16.5882 6.03369 1.38029
RightFoot  1.84868 0.0029143 0.196845
RightToes  -32.066 -0.158404 -0.266066
441
root  3.67479 34.288 -14.1892 -171.004 38.0721 -179.456
LeftUpLeg  -17.6962 7.1951 0.501348
LeftLeg  13.6508 -3.61376 -0.636327
LeftFoot  3.73587 0.0082757 -0.238105
LeftToes  -15.5491 7.65994e-007 1.12379e-007
Spine  9.32999 1.45803 -1.73604
Spine1  18.6111 3.19 -3.23847
RightShoulder  0.00382223 5.79179 -7.90907
RightArm  20.1634 -16.2221 73.0735
RightForeArm  122.757 76.4827 131.965
RightHand  -0.426645 -4.75531 10.6033
LeftShoulder1  0.000147313 -2.10034 -3.63886
LeftArm  -14.1444 15.9247 -69.5484
LeftForeArm  21.2565 -45.496 -10.3465
LeftHand  0.00204791 0.0260395 6.80945
HEad  -12.829 19.4482 -8.38831
RightUpLeg  -16.8972 -2.84133 -4.4646
RightLeg  16.7658 7.96086 1.84454
RightFoot  3.2887 -0.00251608 0.465095
RightToes  -32.531 -0.161574 -0.269021
442
root  3.23777 34.3586 -13.9957 -169.523 39.8477 -179.065
LeftUpLeg  -18.3835 7.63986 0.266302
LeftLeg  11.4038 -2.34838 -0.319661
LeftFoot  4.98021 0.00755934 -0.203891
LeftToes  -17.155 7.65994e-007 1.12379e-007
Spine  9.84416 1.27425 -2.03606
Spine1  19.6266 2.89069 -3.85236
RightShoulder  0.00217797 5.84265 -7.9621
RightArm  19.9807 -15.5291 73.4937
RightForeArm  117.941 77.239 127.923
RightHand  -0.465116 -4.64254 11.7895
LeftShoulder1  0.00183953 -2.51063 -2.91259
LeftArm  -14.3229 16.0106 -69.2305
LeftForeArm  21.1825 -48.2282 -11.4029
LeftHand  0.0156464 0.228495 7.2446
HEad  -17.4796 17.7756 -8.4818
RightUpLeg  -19.3713 -3.56183 -4.33382
RightLeg  17.0687 10.2511 2.42685
RightFoot  5.07063 -0.0245518 0.9319
RightToes  -32.7784 -0.163514 -0.270805
